<svg id="Layer_3" enable-background="new 0 0 64 64" height="512" viewBox="0 0 64 64" width="512" xmlns="http://www.w3.org/2000/svg"><path d="m53.585 61c-3.229-3.225-7.521-5-12.085-5-2.877 0-5.681.718-8.188 2.086.591.467 1.158.971 1.698 1.511l1.404 1.403h-2.829c-3.229-3.225-7.521-5-12.085-5s-8.856 1.775-12.085 5h-8.415v2h62v-2z"/><path d="m29 21h6v2h-6z"/><path d="m37 13.586v-3.172l-4.293 4.293c-.391.391-1.023.391-1.414 0l-4.293-4.293v3.172l5 5z"/><path d="m31.575 33h.85c1.388-2.464 2.226-5.193 2.482-8h-5.814c.256 2.807 1.094 5.536 2.482 8z"/><path d="m31 40.949v15.583c.169.097.341.187.507.289.486-.298.986-.565 1.493-.817v-15.055c-.333.017-.662.051-1 .051s-.667-.034-1-.051z"/><path d="m32 39c9.925 0 18-8.075 18-18s-8.075-18-18-18-18 8.075-18 18 8.075 18 18 18zm-7-31c0-.404.244-.77.617-.924.374-.157.803-.069 1.09.217l5.293 5.293 5.293-5.293c.285-.286.714-.374 1.09-.217.373.154.617.52.617.924v6c0 .266-.105.52-.293.707l-4.293 4.293h1.586c.552 0 1 .447 1 1v3.184c0 3.983-1.083 7.895-3.131 11.311l-.003.005c-.179.31-.509.5-.866.5h-2c-.357 0-.688-.19-.866-.5-2.05-3.416-3.134-7.33-3.134-11.316v-3.184c0-.553.448-1 1-1h1.586l-4.293-4.293c-.188-.187-.293-.441-.293-.707z"/><path d="m10.332 17.173-1.97-.346c-.121.688-.212 1.391-.272 2.087l1.992.172c.055-.639.139-1.282.25-1.913z"/><path d="m26.784 44.432.433-1.953c-9.976-2.212-17.217-11.245-17.217-21.479h-2c0 11.164 7.899 21.019 18.784 23.432z"/></svg>